<svg xmlns="http://www.w3.org/2000/svg" viewBox="0 0 48 48">
    <path fill="#ff6d00" d="M43,32c0,0-0.643,0.112-3.49-0.783c0.608-2.364,0.49-5.6,0.49-9.717c0-9.433-7.468-17.101-16.812-17.465C22.989,4.013,22.765,4,22.5,4c-0.494,0-0.995,0.028-1.498,0.076c-0.904,0.077-1.784,0.229-2.643,0.438C12.011,5.961,6,10,6,10c0.319,0.745,1.092,1.398,1.874,1.904C6.062,14.661,5,17.955,5,21.5c0,3.631,1.833,6.75,3,10.5c23,6.063,30,12,30,12C43.5,39.063,43,32,43,32z"></path>
    <path fill="#c5cae9" d="M41,18c0,0-9.271,0.188-16.438-2.813L22,17l-1.594,3c0,0,2.01,6.5,21.594,12C42.833,24.083,41,18,41,18z"></path>
    <path fill="#e8eaf6" d="M41.888,22.617c-1.591,1.528-3.281,3.151-4.91,4.716c-0.847,0.814-1.626,1.562-2.354,2.261c-1.488-0.564-2.827-1.127-4.023-1.682c1.19-1.142,2.415-2.319,3.606-3.463l6.719-6.448C40.96,18,41,18,41,18S41.527,19.766,41.888,22.617z M28.101,26.663c1.213-1.165,2.6-2.497,4.217-4.05c1.639-1.574,3.338-3.207,4.937-4.742c-0.794-0.056-1.677-0.135-2.628-0.247l-3.694,3.547c-1.574,1.512-3.159,3.034-4.634,4.452C26.848,25.961,27.447,26.309,28.101,26.663z"></path>
    <path fill="#37474f" d="M23.5,15c-1.933,0-3.5,1.567-3.5,3.5s1.567,3.5,3.5,3.5s3.5-1.567,3.5-3.5S25.433,15,23.5,15z M23.5,20c-0.828,0-1.5-0.672-1.5-1.5s0.672-1.5,1.5-1.5s1.5,0.672,1.5,1.5S24.328,20,23.5,20z M39.389,42.546C38.971,43.043,38.52,43.533,38,44c0,0-0.54-0.457-1.806-1.245c-0.195-0.121-0.41-0.252-0.64-0.388c-0.033-0.02-0.068-0.04-0.102-0.06c-0.204-0.12-0.422-0.246-0.653-0.377c-0.041-0.023-0.08-0.045-0.122-0.069c-0.263-0.148-0.543-0.302-0.841-0.461c-0.049-0.027-0.103-0.054-0.154-0.081c-0.254-0.135-0.523-0.275-0.803-0.419c-0.08-0.041-0.159-0.082-0.241-0.123c-0.338-0.171-0.69-0.346-1.065-0.528c-0.047-0.023-0.097-0.046-0.145-0.069c-0.332-0.16-0.682-0.324-1.043-0.491c-0.112-0.052-0.225-0.104-0.34-0.156c-0.409-0.186-0.83-0.376-1.275-0.57c-0.018-0.008-0.034-0.015-0.052-0.023c-0.456-0.198-0.938-0.402-1.433-0.608c-0.138-0.057-0.279-0.115-0.421-0.173c-0.43-0.177-0.875-0.356-1.334-0.537c-0.099-0.039-0.193-0.077-0.293-0.116c-0.545-0.213-1.114-0.43-1.7-0.649c-0.156-0.058-0.317-0.117-0.476-0.176c-0.487-0.18-0.989-0.361-1.505-0.544c-0.153-0.054-0.301-0.108-0.456-0.162c-0.644-0.226-1.31-0.454-1.999-0.684c-0.156-0.052-0.319-0.105-0.478-0.157c-0.574-0.19-1.164-0.38-1.768-0.572c-0.196-0.062-0.39-0.124-0.59-0.187c-0.754-0.236-1.527-0.473-2.328-0.711c-0.123-0.037-0.253-0.074-0.377-0.11c-0.702-0.207-1.424-0.415-2.163-0.624c-0.232-0.065-0.464-0.131-0.7-0.196C9.82,32.489,8.928,32.245,8,32c-0.214-0.689-0.454-1.353-0.698-2.007l0,0C6.219,27.091,5,24.464,5,21.5c0-0.495,0.034-0.982,0.074-1.467c18.171,7.991,27.712,13.422,30.792,15.269c0.747,0.448,1.226,1.222,1.289,2.091c0.072,0.981,0.088,2.321-0.165,3.505c1.517,0.926,2.215,1.502,2.303,1.577C39.325,42.501,39.358,42.52,39.389,42.546z M5.899,15.998c0.485-1.457,1.147-2.834,1.976-4.094C7.092,11.398,6.319,10.745,6,10c0,0,0.702-0.469,1.862-1.138L8,9c0,0,0.667,1.333,2,2c0.25,1.333-1.583,4.583-4,5C5.966,16.006,5.932,15.995,5.899,15.998z"></path>
</svg>